<?xml version="1.0" standalone="no"?>
<!DOCTYPE svg PUBLIC "-//W3C//DTD SVG 20010904//EN"
 "http://www.w3.org/TR/2001/REC-SVG-20010904/DTD/svg10.dtd">
<svg version="1.0" xmlns="http://www.w3.org/2000/svg"
 width="512.000000pt" height="512.000000pt" viewBox="0 0 512.000000 512.000000"
 preserveAspectRatio="xMidYMid meet">
<metadata>
Created by potrace 1.14, written by Peter Selinger 2001-2017
</metadata>
<g transform="translate(0.000000,512.000000) scale(0.100000,-0.100000)"
fill="#000000" stroke="none">
<path d="M0 2560 l0 -2560 2560 0 2560 0 0 2560 0 2560 -2560 0 -2560 0 0
-2560z m2793 994 c108 -24 192 -69 275 -148 39 -38 72 -74 72 -81 0 -7 -53
-62 -117 -123 l-118 -109 -27 38 c-34 48 -99 96 -150 110 -58 15 -172 12 -228
-6 -118 -39 -181 -166 -131 -263 45 -88 89 -117 412 -271 278 -131 430 -327
429 -551 -2 -266 -165 -474 -435 -552 -69 -19 -103 -23 -240 -22 -118 0 -178
4 -230 17 -96 24 -221 87 -273 137 -45 43 -102 117 -102 131 0 4 50 64 111
134 l112 126 28 -49 c52 -91 147 -153 263 -172 200 -32 365 74 366 236 0 103
-82 178 -334 305 -242 123 -361 206 -426 296 -110 152 -128 343 -49 512 64
139 249 270 429 305 103 20 274 20 363 0z m-1013 -199 l0 -175 -230 0 -230 0
0 -780 0 -780 -205 0 -205 0 0 780 0 780 -235 0 -235 0 0 175 0 175 670 0 670
0 0 -175z m2371 165 c159 -11 266 -34 353 -75 219 -104 319 -391 211 -605 -51
-100 -142 -163 -295 -204 l-45 -12 74 -19 c264 -65 399 -247 370 -500 -27
-247 -198 -406 -496 -461 -66 -12 -173 -18 -435 -21 l-348 -5 0 956 0 956 233
0 c127 0 298 -5 378 -10z"/>
<path d="M3950 2989 l0 -221 133 4 c143 5 189 17 240 66 60 57 72 202 24 274
-49 71 -131 98 -305 98 l-92 0 0 -221z"/>
<path d="M3950 2195 l0 -258 143 5 c153 6 188 15 247 65 96 80 108 260 24 353
-57 63 -117 82 -276 88 l-138 5 0 -258z"/>
</g>
</svg>
